<?xml version="1.0" encoding="UTF-8"?><svg xmlns="http://www.w3.org/2000/svg" xmlns:xlink="http://www.w3.org/1999/xlink" width="112.5" zoomAndPan="magnify" viewBox="0 0 112.5 112.499997" height="112.499997" preserveAspectRatio="xMidYMid meet" version="1.0"><defs><clipPath id="clip-0"><path d="M 12 11.25 L 97 11.25 L 97 101 L 12 101 Z M 12 11.25 " clip-rule="nonzero"/></clipPath><clipPath id="clip-1"><path d="M 52.910156 11.25 L 101.324219 11.25 L 101.324219 59.664062 L 52.910156 59.664062 Z M 52.910156 11.25 " clip-rule="nonzero"/></clipPath><clipPath id="clip-2"><path d="M 62.957031 21.296875 L 91.359375 21.296875 L 91.359375 49.699219 L 62.957031 49.699219 Z M 62.957031 21.296875 " clip-rule="nonzero"/></clipPath></defs><g clip-path="url(#clip-0)"><path fill="rgb(100%, 100%, 100%)" d="M 91.664062 100.011719 C 91.628906 100.019531 91.589844 100.03125 91.554688 100.035156 C 91.300781 100.085938 85.285156 101.1875 79 99.226562 C 77.855469 98.875 76.734375 98.929688 75.632812 99.398438 C 74.8125 99.742188 73.96875 100.015625 73.105469 100.222656 C 71.707031 100.566406 70.289062 100.734375 68.851562 100.734375 C 66.277344 100.726562 63.808594 100.226562 61.4375 99.226562 C 59.484375 98.394531 57.601562 97.433594 55.78125 96.34375 C 51.820312 94 47.074219 92.808594 41.671875 92.808594 L 41.667969 92.808594 C 39.425781 92.808594 37.292969 93.296875 35.273438 94.261719 C 32.699219 95.496094 28.78125 96.808594 24.738281 96.039062 C 21.492188 95.417969 11.039062 92.347656 12.78125 78.851562 C 12.78125 78.832031 12.785156 78.816406 12.789062 78.800781 C 12.835938 78.503906 14.046875 71.507812 17.019531 65.3125 C 17.953125 63.363281 18.410156 61.3125 18.402344 59.152344 C 18.378906 54.863281 18.109375 50.585938 17.589844 46.328125 C 17.039062 41.558594 16.394531 36.171875 15.671875 30.3125 C 15.652344 30.136719 15.664062 29.960938 15.710938 29.789062 C 15.757812 29.621094 15.835938 29.464844 15.945312 29.324219 C 16.054688 29.183594 16.1875 29.070312 16.34375 28.984375 C 16.5 28.894531 16.664062 28.839844 16.839844 28.820312 C 17.015625 28.796875 17.191406 28.8125 17.363281 28.859375 C 17.535156 28.90625 17.691406 28.984375 17.828125 29.09375 C 17.96875 29.203125 18.082031 29.335938 18.171875 29.488281 C 18.257812 29.644531 18.3125 29.808594 18.335938 29.988281 C 19.054688 35.851562 19.703125 41.246094 20.253906 46.019531 C 20.785156 50.378906 21.058594 54.75 21.082031 59.140625 C 21.097656 61.707031 20.546875 64.152344 19.441406 66.46875 C 16.71875 72.140625 15.515625 78.769531 15.4375 79.222656 C 14.054688 90.074219 21.832031 92.757812 25.242188 93.410156 C 28.566406 94.042969 31.902344 92.910156 34.113281 91.851562 C 36.5 90.707031 39.019531 90.136719 41.667969 90.132812 L 41.675781 90.132812 C 47.566406 90.132812 52.773438 91.449219 57.148438 94.042969 C 58.863281 95.070312 60.640625 95.976562 62.480469 96.761719 C 64.054688 97.433594 65.695312 97.84375 67.402344 97.992188 C 69.109375 98.140625 70.796875 98.019531 72.464844 97.625 C 73.191406 97.453125 73.898438 97.222656 74.585938 96.9375 C 75.410156 96.585938 76.273438 96.386719 77.167969 96.339844 C 78.066406 96.296875 78.941406 96.40625 79.800781 96.671875 C 85.136719 98.335938 90.429688 97.511719 91.003906 97.417969 C 92.207031 97.070312 93.03125 96.460938 93.527344 95.5625 C 94.582031 93.652344 93.816406 91.035156 93.808594 91.011719 C 93.773438 90.894531 93.753906 90.777344 93.75 90.65625 C 93.746094 90.476562 93.6875 90.316406 93.578125 90.179688 C 93.464844 90.039062 93.324219 89.945312 93.152344 89.902344 C 91.09375 89.402344 88.574219 89.019531 86.917969 88.800781 C 87.222656 90.40625 88.558594 91.332031 90.96875 91.621094 C 91.140625 91.640625 91.296875 91.691406 91.449219 91.773438 C 91.597656 91.855469 91.726562 91.960938 91.835938 92.089844 C 91.945312 92.222656 92.027344 92.367188 92.082031 92.53125 C 92.136719 92.691406 92.15625 92.859375 92.148438 93.027344 C 92.136719 93.199219 92.09375 93.359375 92.023438 93.515625 C 91.953125 93.667969 91.851562 93.804688 91.730469 93.921875 C 91.605469 94.039062 91.464844 94.128906 91.304688 94.191406 C 91.148438 94.253906 90.980469 94.285156 90.8125 94.285156 C 90.757812 94.289062 90.703125 94.285156 90.648438 94.277344 C 86.683594 93.804688 84.347656 91.648438 84.179688 88.425781 C 76.492188 87.007812 69.757812 81.917969 69.460938 81.695312 C 69.445312 81.683594 69.429688 81.671875 69.414062 81.660156 C 64.1875 77.28125 57.375 72.96875 53.78125 70.789062 C 50.542969 68.832031 47.886719 66.277344 45.8125 63.121094 L 45.65625 62.882812 C 44.003906 60.296875 43.03125 57.480469 42.734375 54.433594 C 42.300781 49.839844 41.921875 43.101562 42.605469 37.082031 C 43.410156 29.964844 43.945312 17.601562 44.140625 12.617188 C 44.148438 12.441406 44.1875 12.269531 44.261719 12.109375 C 44.335938 11.949219 44.441406 11.808594 44.570312 11.6875 C 44.699219 11.570312 44.847656 11.476562 45.015625 11.417969 C 45.183594 11.355469 45.355469 11.328125 45.53125 11.335938 C 45.707031 11.339844 45.878906 11.382812 46.039062 11.457031 C 46.199219 11.53125 46.339844 11.632812 46.460938 11.761719 C 46.582031 11.890625 46.675781 12.039062 46.738281 12.207031 C 46.796875 12.371094 46.824219 12.542969 46.820312 12.71875 C 46.578125 18.949219 46.054688 30.433594 45.265625 37.382812 C 44.609375 43.171875 44.980469 49.710938 45.402344 54.179688 C 45.65625 56.800781 46.492188 59.21875 47.914062 61.4375 L 48.058594 61.660156 C 49.910156 64.476562 52.28125 66.757812 55.171875 68.5 C 58.824219 70.71875 65.75 75.101562 71.113281 79.585938 C 71.535156 79.902344 78.28125 84.886719 85.445312 85.921875 C 88.25 86.226562 91.03125 86.6875 93.785156 87.300781 C 94.140625 87.390625 94.472656 87.53125 94.785156 87.722656 C 95.09375 87.914062 95.367188 88.148438 95.601562 88.425781 C 95.839844 88.703125 96.027344 89.011719 96.167969 89.347656 C 96.304688 89.683594 96.390625 90.035156 96.417969 90.398438 C 96.621094 91.160156 97.300781 94.246094 95.886719 96.835938 C 95.03125 98.398438 93.609375 99.46875 91.664062 100.011719 Z M 91.664062 100.011719 " fill-opacity="1" fill-rule="nonzero"/></g><path fill="rgb(100%, 100%, 100%)" d="M 26.917969 69.714844 C 27.046875 69.839844 27.148438 69.980469 27.222656 70.144531 C 27.292969 70.308594 27.332031 70.480469 27.335938 70.660156 C 27.335938 70.835938 27.304688 71.011719 27.242188 71.175781 C 27.175781 71.34375 27.078125 71.488281 26.953125 71.617188 C 26.828125 71.746094 26.683594 71.84375 26.519531 71.914062 C 26.355469 71.984375 26.183594 72.019531 26.003906 72.023438 C 25.824219 72.023438 25.652344 71.988281 25.484375 71.921875 C 25.320312 71.855469 25.171875 71.757812 25.046875 71.632812 C 24.941406 71.53125 24.839844 71.425781 24.742188 71.320312 C 24.199219 70.722656 23.765625 70.050781 23.441406 69.308594 C 23.117188 68.566406 22.921875 67.792969 22.855469 66.984375 C 22.785156 66.179688 22.851562 65.382812 23.046875 64.597656 C 23.242188 63.8125 23.558594 63.078125 23.996094 62.394531 C 24.382812 61.804688 24.734375 61.1875 25.046875 60.554688 C 25.117188 60.390625 25.21875 60.246094 25.347656 60.125 C 25.472656 60 25.621094 59.90625 25.785156 59.84375 C 25.953125 59.777344 26.125 59.746094 26.300781 59.75 C 26.480469 59.753906 26.648438 59.792969 26.8125 59.863281 C 26.976562 59.933594 27.117188 60.03125 27.242188 60.160156 C 27.363281 60.289062 27.457031 60.433594 27.523438 60.601562 C 27.589844 60.765625 27.621094 60.9375 27.617188 61.113281 C 27.613281 61.289062 27.574219 61.460938 27.503906 61.625 C 27.140625 62.382812 26.730469 63.117188 26.265625 63.820312 C 25.984375 64.25 25.78125 64.71875 25.65625 65.214844 C 25.527344 65.714844 25.484375 66.21875 25.523438 66.734375 C 25.5625 67.246094 25.683594 67.742188 25.886719 68.214844 C 26.089844 68.6875 26.363281 69.117188 26.707031 69.5 C 26.773438 69.570312 26.84375 69.644531 26.917969 69.714844 Z M 26.917969 69.714844 " fill-opacity="1" fill-rule="nonzero"/><g clip-path="url(#clip-1)"><path fill="rgb(100%, 100%, 100%)" d="M 77.117188 11.25 C 63.769531 11.25 52.910156 22.109375 52.910156 35.457031 C 52.910156 48.804688 63.769531 59.664062 77.117188 59.664062 C 90.464844 59.664062 101.324219 48.804688 101.324219 35.457031 C 101.324219 22.109375 90.464844 11.25 77.117188 11.25 Z M 77.117188 57.730469 C 64.835938 57.730469 54.847656 47.738281 54.847656 35.457031 C 54.847656 23.175781 64.835938 13.1875 77.117188 13.1875 C 89.398438 13.1875 99.390625 23.175781 99.390625 35.457031 C 99.390625 47.738281 89.398438 57.730469 77.117188 57.730469 Z M 77.117188 57.730469 " fill-opacity="1" fill-rule="nonzero"/></g><g clip-path="url(#clip-2)"><path fill="rgb(100%, 100%, 100%)" d="M 90.644531 30.230469 L 82.425781 30.230469 L 82.425781 22.011719 C 82.425781 21.617188 82.105469 21.296875 81.710938 21.296875 L 72.605469 21.296875 C 72.210938 21.296875 71.890625 21.617188 71.890625 22.011719 L 71.890625 30.230469 L 63.671875 30.230469 C 63.277344 30.230469 62.957031 30.550781 62.957031 30.945312 L 62.957031 40.054688 C 62.957031 40.445312 63.277344 40.765625 63.671875 40.765625 L 71.890625 40.765625 L 71.890625 48.984375 C 71.890625 49.378906 72.210938 49.699219 72.605469 49.699219 L 81.710938 49.699219 C 82.105469 49.699219 82.425781 49.378906 82.425781 48.984375 L 82.425781 40.765625 L 90.644531 40.765625 C 91.042969 40.765625 91.359375 40.445312 91.359375 40.054688 L 91.359375 30.945312 C 91.359375 30.550781 91.042969 30.230469 90.644531 30.230469 Z M 89.933594 39.339844 L 81.710938 39.339844 C 81.316406 39.339844 81 39.65625 81 40.054688 L 81 48.269531 L 73.320312 48.269531 L 73.320312 40.054688 C 73.320312 39.65625 73 39.339844 72.605469 39.339844 L 64.386719 39.339844 L 64.386719 31.660156 L 72.605469 31.660156 C 73 31.660156 73.320312 31.339844 73.320312 30.945312 L 73.320312 22.726562 L 81 22.726562 L 81 30.945312 C 81 31.339844 81.320312 31.660156 81.714844 31.660156 L 89.933594 31.660156 Z M 89.933594 39.339844 " fill-opacity="1" fill-rule="nonzero"/></g></svg>