<?xml version="1.0" encoding="UTF-8"?><svg xmlns="http://www.w3.org/2000/svg" xmlns:xlink="http://www.w3.org/1999/xlink" width="375" zoomAndPan="magnify" viewBox="0 0 375 374.999991" height="374.999991" preserveAspectRatio="xMidYMid meet" version="1.0"><defs><clipPath id="clip-0"><path d="M 67.53125 38 L 307.53125 38 L 307.53125 333 L 67.53125 333 Z M 67.53125 38 " clip-rule="nonzero"/></clipPath></defs><g clip-path="url(#clip-0)"><path fill="rgb(100%, 100%, 100%)" d="M 272.175781 45.097656 C 272.875 41.980469 270.917969 38.886719 267.800781 38.1875 C 264.6875 37.488281 261.59375 39.441406 260.890625 42.558594 C 260.859375 42.695312 249.882812 90.78125 252.179688 112.839844 C 252.503906 115.910156 252.734375 119.105469 252.957031 122.136719 C 254.183594 138.917969 255.058594 150.914062 273.027344 170.765625 C 279.574219 177.996094 284.050781 182.609375 287.316406 185.972656 C 293.363281 192.203125 294.605469 193.476562 295.21875 197.222656 C 295.699219 200.144531 295.472656 203.199219 293.898438 206.128906 C 292.140625 209.390625 288.707031 212.683594 282.773438 215.8125 C 276.371094 219.191406 268.800781 222.414062 261.921875 225.339844 C 253.664062 228.855469 246.347656 231.96875 242.320312 234.828125 C 238.628906 237.445312 234.089844 241.449219 229.601562 246.066406 C 225.5 250.289062 221.382812 255.09375 217.929688 259.898438 C 211.652344 268.644531 202.734375 288.03125 199.269531 295.578125 C 198.976562 296.203125 198.761719 296.679688 198.183594 297.90625 C 197.386719 299.597656 195.78125 302.714844 192.363281 305.859375 C 188.785156 309.15625 183.214844 312.515625 174.472656 314.515625 C 159.785156 317.875 135.917969 324.953125 121.855469 317.730469 C 117.140625 315.308594 113.128906 312.25 111.761719 310.765625 C 110.84375 309.765625 109.824219 307.121094 109.453125 304.222656 C 109.222656 302.398438 109.28125 300.707031 109.898438 299.84375 C 111.800781 297.167969 122.820312 295.992188 124.363281 295.839844 L 124.363281 295.84375 C 124.425781 295.839844 145.425781 294.683594 154.945312 280.753906 C 156.332031 278.722656 157.617188 276.980469 158.90625 275.242188 C 165.796875 265.921875 172.660156 256.640625 179.007812 230.546875 C 182.242188 217.261719 185.988281 201.605469 189.125 185.359375 C 192.304688 168.878906 194.90625 151.566406 195.832031 134.980469 C 195.941406 133.097656 196.003906 131.21875 196.003906 129.449219 C 196.003906 121.417969 194.988281 111.953125 191.550781 104.167969 C 187.667969 95.382812 180.949219 88.78125 169.710938 88.152344 C 169.011719 88.113281 168.460938 88.09375 168.070312 88.09375 L 150.890625 88.09375 L 150.890625 51.273438 C 150.890625 48.070312 148.292969 45.476562 145.089844 45.476562 L 116.4375 45.476562 C 113.234375 45.476562 110.636719 48.070312 110.636719 51.273438 L 110.636719 88.09375 L 73.347656 88.09375 C 70.144531 88.09375 67.546875 90.691406 67.546875 93.890625 L 67.546875 123.222656 C 67.546875 126.421875 70.144531 129.019531 73.347656 129.019531 L 110.636719 129.019531 L 110.636719 165.84375 C 110.636719 169.042969 113.234375 171.640625 116.4375 171.640625 L 145.089844 171.640625 C 148.292969 171.640625 150.890625 169.042969 150.890625 165.84375 L 150.890625 140.226562 C 150.890625 137.023438 148.292969 134.429688 145.089844 134.429688 C 141.886719 134.429688 139.289062 137.023438 139.289062 140.226562 L 139.289062 160.042969 L 122.238281 160.042969 L 122.238281 123.222656 C 122.238281 120.019531 119.644531 117.425781 116.4375 117.425781 L 79.148438 117.425781 L 79.148438 99.691406 L 116.4375 99.691406 C 119.644531 99.691406 122.238281 97.09375 122.238281 93.890625 L 122.238281 57.070312 L 139.289062 57.070312 L 139.289062 93.890625 C 139.289062 97.09375 141.886719 99.691406 145.089844 99.691406 L 168.070312 99.691406 C 168.578125 99.691406 168.914062 99.695312 169.078125 99.707031 C 175.042969 100.039062 178.726562 103.804688 180.949219 108.835938 C 183.613281 114.875 184.402344 122.691406 184.402344 129.449219 C 184.402344 131.339844 184.355469 132.964844 184.277344 134.34375 C 183.386719 150.292969 180.851562 167.105469 177.75 183.183594 C 174.605469 199.496094 170.933594 214.835938 167.769531 227.828125 C 161.980469 251.640625 155.8125 259.980469 149.617188 268.355469 C 148.171875 270.308594 146.722656 272.265625 145.382812 274.226562 C 139.09375 283.429688 123.730469 284.289062 123.683594 284.292969 L 123.683594 284.300781 C 123.625 284.304688 123.566406 284.308594 123.503906 284.3125 C 123.453125 284.320312 105.609375 285.925781 100.472656 293.136719 C 97.960938 296.660156 97.429688 301.277344 97.992188 305.671875 C 98.652344 310.855469 100.992188 316.15625 103.246094 318.601562 C 105.21875 320.746094 110.605469 324.957031 116.550781 328.011719 C 134.996094 337.492188 158.195312 330.113281 177.054688 325.796875 C 188.121094 323.261719 195.398438 318.800781 200.203125 314.378906 C 205.171875 309.800781 207.496094 305.292969 208.652344 302.84375 C 208.738281 302.65625 209.097656 301.867188 209.78125 300.378906 C 213.117188 293.125 221.691406 274.476562 227.3125 266.648438 C 230.394531 262.355469 234.132812 258.003906 237.894531 254.128906 C 241.910156 249.992188 245.878906 246.480469 249.027344 244.25 C 252.007812 242.132812 258.792969 239.246094 266.449219 235.984375 C 273.550781 232.964844 281.359375 229.644531 288.164062 226.054688 C 296.351562 221.730469 301.316406 216.769531 304.089844 211.613281 C 307.046875 206.125 307.496094 200.582031 306.640625 195.367188 C 305.433594 188.027344 303.761719 186.304688 295.609375 177.910156 C 292.25 174.445312 287.636719 169.695312 281.59375 163.019531 C 266.324219 146.15625 265.570312 135.804688 264.511719 121.320312 C 264.296875 118.410156 264.074219 115.339844 263.691406 111.664062 C 261.589844 91.484375 272.144531 45.226562 272.175781 45.097656 " fill-opacity="1" fill-rule="nonzero"/></g></svg>