<svg xmlns="http://www.w3.org/2000/svg" width="375" viewBox="0 0 375 375" height="375" version="1.0"><defs><clipPath id="a"><path d="M 49.300781 37.5 L 325.691406 37.5 L 325.691406 337.5 L 49.300781 337.5 Z M 49.300781 37.5"/></clipPath></defs><g clip-path="url(#a)"><path fill="#43726E" d="M 223.183594 249.417969 L 207.695312 242.59375 L 205.222656 239.316406 L 211.089844 234.027344 C 212.257812 232.980469 212.886719 231.457031 212.808594 229.886719 L 211.835938 210.042969 L 214.042969 207.742188 C 214.089844 207.875 214.136719 208.007812 214.183594 208.140625 C 218.753906 220.933594 223.261719 232.746094 227.097656 242.476562 C 227.300781 242.984375 227.5 243.492188 227.699219 244 C 227.738281 244.101562 227.777344 244.199219 227.816406 244.296875 C 228.339844 245.609375 228.855469 246.917969 229.378906 248.222656 Z M 316.203125 301.535156 C 311.320312 298.722656 301.753906 295.695312 291.621094 292.492188 C 284.632812 290.285156 277.410156 288 272.613281 286.019531 C 259.933594 280.777344 250.074219 270.988281 244.847656 258.433594 C 243.722656 255.742188 242.597656 252.996094 241.464844 250.210938 C 241.460938 250.203125 241.457031 250.191406 241.457031 250.183594 C 240.476562 247.78125 239.402344 245.117188 238.257812 242.238281 C 237.914062 241.371094 237.570312 240.507812 237.226562 239.636719 C 237.152344 239.449219 237.074219 239.253906 237 239.0625 C 231.386719 224.820312 225.917969 210.140625 221.296875 196.847656 C 221.296875 196.847656 221.257812 196.730469 221.214844 196.605469 C 209.714844 163.429688 209.316406 141.519531 208.128906 76.796875 L 207.734375 55.804688 C 207.660156 51.914062 207.699219 47.574219 207.847656 42.902344 C 207.941406 40.011719 205.675781 37.597656 202.785156 37.503906 C 199.933594 37.394531 197.480469 39.679688 197.390625 42.566406 C 197.234375 47.417969 197.191406 51.9375 197.269531 56.011719 L 197.667969 76.988281 C 198.835938 140.792969 199.257812 163.777344 210.179688 196.648438 L 202.722656 204.429688 C 201.726562 205.46875 201.203125 206.871094 201.277344 208.304688 L 202.238281 227.921875 L 194.652344 234.757812 C 192.640625 236.574219 192.347656 239.628906 193.980469 241.792969 L 200.160156 249.984375 C 200.699219 250.699219 201.410156 251.261719 202.230469 251.621094 L 220.460938 259.652344 C 221.125 259.949219 221.847656 260.097656 222.570312 260.097656 C 222.902344 260.097656 223.230469 260.066406 223.5625 260.003906 L 233.386719 258.105469 C 233.988281 259.570312 234.589844 261.027344 235.1875 262.464844 C 241.492188 277.585938 253.363281 289.386719 268.613281 295.691406 C 273.828125 297.84375 281.269531 300.195312 288.464844 302.472656 C 297.195312 305.230469 307.082031 308.355469 310.980469 310.597656 C 314.433594 312.589844 316.097656 316.738281 314.761719 320.046875 C 312.363281 325.988281 300.839844 327.132812 291.527344 327.027344 C 239.832031 326.507812 201.332031 322.414062 191.042969 316.347656 C 184.230469 312.324219 178.042969 302.863281 171.488281 292.847656 C 163.089844 280.011719 154.410156 266.742188 142.121094 261.425781 C 137.476562 259.417969 131.089844 257.382812 123.699219 255.027344 C 99.820312 247.410156 63.730469 235.90625 60.199219 215.082031 C 57.398438 198.597656 69.003906 180.632812 80.222656 163.257812 C 86.121094 154.128906 92.222656 144.6875 96.230469 135.429688 C 98.585938 129.984375 101.996094 116.265625 104.339844 60.230469 C 104.460938 57.347656 102.222656 54.90625 99.332031 54.785156 C 96.332031 54.6875 94.003906 56.910156 93.886719 59.792969 C 91.789062 109.859375 88.78125 126.296875 86.625 131.269531 C 82.964844 139.734375 77.363281 148.402344 71.4375 157.578125 C 59.128906 176.632812 46.402344 196.339844 49.882812 216.832031 C 54.480469 243.941406 92.652344 256.109375 120.519531 264.996094 C 127.644531 267.265625 133.796875 269.230469 137.96875 271.03125 C 147.371094 275.097656 155.179688 287.035156 162.730469 298.574219 C 169.972656 309.640625 176.8125 320.09375 185.722656 325.355469 C 202.949219 335.523438 265.378906 337.230469 291.421875 337.496094 C 291.796875 337.496094 292.160156 337.5 292.53125 337.5 C 310.34375 337.5 320.796875 333.066406 324.46875 323.960938 C 327.765625 315.792969 324.214844 306.152344 316.203125 301.535156"/></g><path fill="#43726E" d="M 238.488281 196.132812 C 239.878906 196.132812 241.269531 195.578125 242.300781 194.480469 L 254.195312 181.8125 C 255.476562 180.449219 255.933594 178.507812 255.390625 176.714844 C 255 175.421875 254.128906 174.351562 252.988281 173.695312 L 257.277344 169.152344 C 259.261719 167.050781 259.167969 163.738281 257.0625 161.753906 C 254.964844 159.769531 251.648438 159.867188 249.667969 161.96875 L 239.316406 172.941406 C 238.035156 174.304688 237.570312 176.246094 238.113281 178.042969 C 238.503906 179.34375 239.382812 180.421875 240.53125 181.078125 L 234.675781 187.320312 C 232.695312 189.425781 232.800781 192.738281 234.90625 194.714844 C 235.917969 195.660156 237.203125 196.132812 238.488281 196.132812"/><path fill="#43726E" d="M 251.582031 229.972656 C 250.527344 232.660156 251.847656 235.699219 254.535156 236.761719 L 270.707031 243.128906 C 271.324219 243.375 271.976562 243.492188 272.625 243.492188 C 273.789062 243.492188 274.941406 243.105469 275.878906 242.355469 C 276.941406 241.511719 277.613281 240.308594 277.800781 239.007812 L 283.605469 241.3125 C 286.292969 242.371094 289.339844 241.066406 290.402344 238.375 C 291.464844 235.691406 290.152344 232.652344 287.464844 231.582031 L 273.449219 226.019531 C 271.707031 225.332031 269.730469 225.628906 268.265625 226.789062 C 267.199219 227.632812 266.519531 228.847656 266.335938 230.160156 L 258.371094 227.023438 C 255.683594 225.964844 252.644531 227.285156 251.582031 229.972656"/></svg>