<svg xmlns="http://www.w3.org/2000/svg" width="375" viewBox="0 0 375 375" height="375" version="1.0"><defs><clipPath id="a"><path d="M 70.125 105 L 250 105 L 250 337.5 L 70.125 337.5 Z M 70.125 105"/></clipPath><clipPath id="b"><path d="M 193 37.617188 L 304.875 37.617188 L 304.875 189.5 L 193 189.5 Z M 193 37.617188"/></clipPath></defs><path fill="#43726E" d="M 157.863281 50.214844 C 169.546875 50.214844 179.054688 59.71875 179.054688 71.402344 C 179.054688 83.085938 169.546875 92.59375 157.863281 92.59375 C 146.179688 92.59375 136.675781 83.085938 136.675781 71.402344 C 136.675781 59.71875 146.179688 50.214844 157.863281 50.214844 Z M 157.863281 102.386719 C 174.949219 102.386719 188.847656 88.488281 188.847656 71.402344 C 188.847656 54.316406 174.949219 40.417969 157.863281 40.417969 C 140.78125 40.417969 126.878906 54.316406 126.878906 71.402344 C 126.878906 88.488281 140.78125 102.386719 157.863281 102.386719"/><g clip-path="url(#a)"><path fill="#43726E" d="M 166.152344 327.585938 C 166.828125 321.230469 172.222656 316.265625 178.753906 316.265625 L 186.773438 316.265625 C 189.480469 316.265625 191.671875 314.074219 191.671875 311.363281 L 191.671875 218.773438 C 193.417969 218.914062 195.113281 218.984375 196.75 218.984375 C 208.8125 218.984375 217.878906 215.390625 223.671875 212.09375 C 223.941406 215.148438 224.128906 218.050781 224.230469 220.742188 C 224.242188 221.199219 224.199219 221.652344 224.089844 222.179688 C 221.953125 232.445312 219.976562 243.503906 219.976562 254.855469 L 219.976562 327.585938 Z M 123.761719 207.519531 L 158.507812 192.683594 C 162.707031 191.082031 166.167969 188.003906 168.257812 184.023438 L 175.554688 170.121094 C 180.019531 184.980469 182.160156 200.3125 181.925781 215.859375 C 181.890625 216.085938 181.875 216.320312 181.875 216.554688 L 181.875 306.46875 L 178.753906 306.46875 C 166.816406 306.46875 157.03125 315.824219 156.332031 327.585938 L 123.761719 327.585938 Z M 106.484375 243.589844 L 107.296875 208.796875 C 109.421875 209.628906 111.679688 210.050781 113.964844 210.050781 L 113.964844 256.953125 Z M 111.65625 183.273438 C 111.902344 183.179688 112.140625 183.066406 112.367188 182.933594 L 144.765625 164.121094 C 145.757812 163.546875 146.511719 162.648438 146.90625 161.578125 L 157.078125 133.902344 C 159.265625 126.921875 163.839844 121.214844 169.632812 118.242188 C 175.609375 115.175781 182.398438 114.65625 188.75 116.769531 C 194.984375 118.847656 199.992188 123.214844 202.847656 129.070312 C 212.128906 148.109375 219.25 177.421875 222.453125 201.238281 C 218.488281 204.21875 208.011719 210.496094 191.671875 208.9375 C 191.15625 190.847656 187.609375 173.082031 181.089844 156.007812 C 180.40625 154.210938 178.726562 152.980469 176.804688 152.867188 C 174.890625 152.738281 173.074219 153.773438 172.179688 155.476562 L 159.585938 179.472656 C 158.605469 181.339844 156.984375 182.78125 154.839844 183.605469 L 117.117188 199.710938 C 114.875 200.566406 112.449219 200.472656 110.289062 199.429688 C 108.125 198.398438 106.53125 196.566406 105.789062 194.273438 C 104.398438 189.976562 107.03125 185.039062 111.65625 183.273438 Z M 244.375 327.585938 L 229.769531 327.585938 L 229.769531 254.855469 C 229.769531 244.394531 231.648438 233.925781 233.675781 224.183594 C 233.949219 222.886719 234.058594 221.652344 234.015625 220.394531 C 233.070312 194.003906 224.445312 151.019531 211.648438 124.777344 C 207.636719 116.539062 200.601562 110.394531 191.84375 107.476562 C 182.972656 104.523438 173.496094 105.25 165.160156 109.523438 C 157.050781 113.6875 150.699219 121.503906 147.804688 130.746094 L 138.320312 156.539062 L 107.765625 174.277344 C 98.445312 178.0625 93.496094 188.082031 96.46875 197.285156 C 96.800781 198.308594 97.214844 199.28125 97.699219 200.207031 L 96.660156 244.699219 C 96.636719 245.574219 96.855469 246.441406 97.28125 247.207031 L 113.179688 275.605469 C 113.398438 276 113.667969 276.34375 113.964844 276.652344 L 113.964844 327.585938 L 75.023438 327.585938 C 72.320312 327.585938 70.125 329.78125 70.125 332.484375 C 70.125 335.1875 72.320312 337.382812 75.023438 337.382812 L 244.375 337.382812 C 247.082031 337.382812 249.273438 335.1875 249.273438 332.484375 C 249.273438 329.78125 247.082031 327.585938 244.375 327.585938"/></g><path fill="#43726E" d="M 207.367188 107.292969 C 208.3125 108.179688 209.515625 108.617188 210.714844 108.617188 C 212.023438 108.617188 213.324219 108.101562 214.289062 107.074219 L 227.742188 92.746094 C 228.9375 91.472656 229.367188 89.652344 228.859375 87.976562 C 228.359375 86.328125 227.03125 85.0625 225.363281 84.644531 L 231.226562 78.429688 C 233.082031 76.464844 232.992188 73.363281 231.027344 71.507812 C 229.058594 69.652344 225.960938 69.738281 224.105469 71.707031 L 212.398438 84.113281 C 211.195312 85.386719 210.769531 87.207031 211.269531 88.886719 C 211.769531 90.542969 213.109375 91.816406 214.792969 92.230469 L 207.148438 100.371094 C 205.296875 102.339844 205.394531 105.4375 207.367188 107.292969"/><path fill="#43726E" d="M 220.898438 117.027344 C 220.148438 119.625 221.648438 122.339844 224.246094 123.09375 L 243.128906 128.539062 C 243.574219 128.667969 244.035156 128.730469 244.484375 128.730469 C 245.734375 128.730469 246.957031 128.253906 247.882812 127.363281 C 249.125 126.164062 249.644531 124.40625 249.257812 122.730469 L 257.460938 125.117188 C 260.054688 125.878906 262.777344 124.382812 263.535156 121.785156 C 264.289062 119.1875 262.792969 116.472656 260.199219 115.714844 L 243.824219 110.945312 C 242.144531 110.457031 240.328125 110.902344 239.0625 112.117188 C 237.8125 113.316406 237.289062 115.085938 237.6875 116.773438 L 226.964844 113.675781 C 224.367188 112.929688 221.648438 114.425781 220.898438 117.027344"/><g clip-path="url(#b)"><path fill="#43726E" d="M 227.667969 37.617188 C 216.71875 37.617188 206.136719 39.863281 196.214844 44.292969 C 193.746094 45.394531 192.636719 48.289062 193.738281 50.761719 C 194.84375 53.234375 197.746094 54.339844 200.210938 53.238281 C 208.867188 49.371094 218.105469 47.410156 227.667969 47.410156 C 264.84375 47.410156 295.089844 77.660156 295.089844 114.835938 C 295.089844 144.519531 275.226562 171.117188 246.785156 179.507812 C 244.191406 180.273438 242.707031 183 243.472656 185.59375 C 244.101562 187.722656 246.050781 189.105469 248.167969 189.105469 C 248.628906 189.105469 249.09375 189.039062 249.558594 188.902344 C 282.132812 179.292969 304.882812 148.835938 304.882812 114.835938 C 304.882812 72.257812 270.246094 37.617188 227.667969 37.617188"/></g><path fill="#43726E" d="M 96.367188 135.9375 C 97.324219 136.894531 98.578125 137.371094 99.832031 137.371094 C 101.082031 137.371094 102.335938 136.894531 103.292969 135.9375 L 105.476562 133.753906 L 107.65625 135.9375 C 108.613281 136.894531 109.867188 137.371094 111.117188 137.371094 C 112.375 137.371094 113.625 136.894531 114.582031 135.9375 C 116.496094 134.023438 116.496094 130.925781 114.582031 129.011719 L 112.402344 126.832031 L 114.582031 124.648438 C 116.496094 122.734375 116.496094 119.636719 114.582031 117.722656 C 112.667969 115.808594 109.570312 115.808594 107.65625 117.722656 L 105.476562 119.90625 L 103.292969 117.722656 C 101.378906 115.808594 98.28125 115.808594 96.367188 117.722656 C 94.453125 119.636719 94.453125 122.734375 96.367188 124.648438 L 98.546875 126.832031 L 96.367188 129.011719 C 94.453125 130.925781 94.453125 134.023438 96.367188 135.9375"/><path fill="#43726E" d="M 267.9375 259.539062 C 266.027344 257.625 262.925781 257.625 261.011719 259.539062 L 258.832031 261.71875 L 256.652344 259.539062 C 254.734375 257.625 251.636719 257.625 249.722656 259.539062 C 247.8125 261.453125 247.8125 264.550781 249.722656 266.464844 L 251.90625 268.644531 L 249.722656 270.828125 C 247.8125 272.742188 247.8125 275.839844 249.722656 277.753906 C 250.683594 278.710938 251.933594 279.1875 253.183594 279.1875 C 254.4375 279.1875 255.695312 278.710938 256.652344 277.753906 L 258.832031 275.570312 L 261.011719 277.753906 C 261.96875 278.710938 263.222656 279.1875 264.476562 279.1875 C 265.730469 279.1875 266.980469 278.710938 267.9375 277.753906 C 269.851562 275.839844 269.851562 272.742188 267.9375 270.828125 L 265.757812 268.644531 L 267.9375 266.464844 C 269.851562 264.550781 269.851562 261.453125 267.9375 259.539062"/></svg>