<svg xmlns="http://www.w3.org/2000/svg" width="375" viewBox="0 0 375 375" height="375" version="1.0"><defs><clipPath id="a"><path d="M 107 37.5 L 178 37.5 L 178 109 L 107 109 Z M 107 37.5"/></clipPath><clipPath id="b"><path d="M 77.25 117 L 288 117 L 288 337.5 L 77.25 337.5 Z M 77.25 117"/></clipPath><clipPath id="c"><path d="M 253 189.5 L 297.617188 189.5 L 297.617188 210 L 253 210 Z M 253 189.5"/></clipPath></defs><g clip-path="url(#a)"><path fill="#43726E" d="M 142.351562 47.316406 C 156.429688 47.316406 167.878906 58.765625 167.878906 72.84375 C 167.878906 86.921875 156.429688 98.375 142.351562 98.375 C 128.273438 98.375 116.820312 86.921875 116.820312 72.84375 C 116.820312 58.765625 128.273438 47.316406 142.351562 47.316406 Z M 142.351562 108.191406 C 161.839844 108.191406 177.695312 92.332031 177.695312 72.84375 C 177.695312 53.355469 161.839844 37.5 142.351562 37.5 C 122.863281 37.5 107.003906 53.355469 107.003906 72.84375 C 107.003906 92.332031 122.863281 108.191406 142.351562 108.191406"/></g><g clip-path="url(#b)"><path fill="#43726E" d="M 218.449219 327.683594 L 218.449219 247.765625 C 218.449219 241.300781 215.25 235.574219 210.359375 232.070312 C 210.355469 232.066406 210.351562 232.066406 210.351562 232.066406 C 210.121094 231.902344 209.890625 231.742188 209.652344 231.589844 C 209.617188 231.566406 209.582031 231.542969 209.546875 231.519531 C 209.335938 231.386719 209.128906 231.253906 208.914062 231.128906 C 208.851562 231.089844 208.785156 231.054688 208.71875 231.015625 C 208.53125 230.910156 208.339844 230.800781 208.144531 230.699219 C 208.054688 230.652344 207.960938 230.605469 207.867188 230.558594 C 207.695312 230.46875 207.523438 230.382812 207.34375 230.300781 C 207.230469 230.246094 207.117188 230.195312 207.003906 230.144531 C 206.84375 230.070312 206.679688 230 206.515625 229.933594 C 206.386719 229.878906 206.25 229.824219 206.117188 229.773438 C 205.96875 229.714844 205.816406 229.65625 205.664062 229.601562 C 205.515625 229.546875 205.367188 229.5 205.21875 229.449219 C 205.074219 229.402344 204.933594 229.355469 204.789062 229.308594 C 204.628906 229.261719 204.46875 229.214844 204.304688 229.171875 C 204.164062 229.132812 204.03125 229.09375 203.890625 229.058594 C 203.71875 229.011719 203.546875 228.976562 203.375 228.9375 C 203.242188 228.910156 203.109375 228.875 202.972656 228.847656 C 202.789062 228.8125 202.605469 228.78125 202.421875 228.75 C 202.296875 228.730469 202.167969 228.703125 202.039062 228.683594 C 201.84375 228.652344 201.648438 228.632812 201.453125 228.609375 C 201.332031 228.597656 201.210938 228.574219 201.085938 228.566406 C 200.875 228.542969 200.65625 228.527344 200.441406 228.515625 C 200.335938 228.507812 200.230469 228.496094 200.125 228.492188 C 199.800781 228.476562 199.476562 228.464844 199.148438 228.464844 L 150.503906 228.464844 C 141.257812 228.464844 133.734375 220.945312 133.734375 211.699219 C 133.734375 211.457031 133.71875 211.214844 133.683594 210.972656 L 128.773438 178.058594 L 123.613281 143.46875 C 123.640625 142.792969 123.75 142.039062 123.890625 141.152344 C 123.925781 140.914062 123.941406 140.675781 123.945312 140.441406 C 125.5 132.710938 132.34375 126.871094 140.523438 126.871094 C 148.476562 126.871094 154.949219 133.34375 154.949219 141.292969 L 154.949219 148.136719 C 154.949219 148.988281 155.167969 149.820312 155.585938 150.5625 L 169.117188 174.394531 C 169.128906 174.410156 169.140625 174.421875 169.148438 174.433594 C 169.277344 174.660156 169.425781 174.871094 169.589844 175.074219 C 169.617188 175.105469 169.640625 175.136719 169.667969 175.167969 C 169.835938 175.363281 170.015625 175.542969 170.210938 175.710938 C 170.242188 175.738281 170.273438 175.761719 170.304688 175.785156 C 170.507812 175.949219 170.71875 176.097656 170.945312 176.230469 C 170.976562 176.246094 171.007812 176.261719 171.039062 176.277344 C 171.277344 176.40625 171.523438 176.519531 171.789062 176.613281 L 204.117188 187.761719 C 204.171875 187.777344 204.21875 187.800781 204.269531 187.820312 C 204.484375 187.902344 204.703125 187.984375 204.910156 188.082031 C 204.960938 188.105469 205.003906 188.128906 205.050781 188.152344 C 205.257812 188.253906 205.464844 188.363281 205.664062 188.480469 C 205.710938 188.511719 205.757812 188.542969 205.804688 188.574219 C 205.992188 188.691406 206.175781 188.8125 206.351562 188.941406 C 206.425781 189 206.5 189.0625 206.570312 189.121094 C 206.703125 189.226562 206.835938 189.335938 206.964844 189.449219 C 207.089844 189.566406 207.210938 189.683594 207.328125 189.808594 C 207.382812 189.867188 207.441406 189.925781 207.5 189.984375 C 208.023438 190.566406 208.46875 191.222656 208.8125 191.949219 C 209.773438 193.964844 209.875 196.238281 209.101562 198.363281 C 209.027344 198.570312 208.96875 198.78125 208.921875 198.988281 C 208.914062 199.007812 208.910156 199.027344 208.902344 199.042969 C 207.164062 202.824219 202.390625 204.601562 198.039062 203.097656 L 161.71875 190.578125 C 159.820312 189.921875 158.226562 188.597656 157.238281 186.855469 L 146.617188 168.144531 C 145.28125 165.789062 142.28125 164.96875 139.929688 166.300781 C 137.570312 167.640625 136.746094 170.636719 138.085938 172.992188 L 148.703125 191.703125 C 150.875 195.527344 154.359375 198.421875 158.523438 199.855469 L 194.839844 212.378906 C 196.910156 213.089844 199.03125 213.433594 201.125 213.433594 C 207.472656 213.433594 213.507812 210.292969 216.804688 205.003906 L 221.882812 205.089844 C 230.023438 205.21875 236.644531 211.953125 236.644531 220.09375 L 236.644531 307.503906 C 236.644531 310.214844 238.839844 312.410156 241.550781 312.410156 L 245.347656 312.410156 C 252.042969 312.410156 257.488281 317.859375 257.488281 324.554688 L 257.488281 327.683594 Z M 131.597656 327.683594 L 131.597656 317.933594 L 178.757812 317.933594 L 178.757812 327.683594 Z M 147.28125 263.042969 L 163.070312 263.042969 L 163.070312 308.121094 L 147.28125 308.121094 Z M 208.632812 327.683594 L 188.570312 327.683594 L 188.570312 313.023438 C 188.570312 310.316406 186.375 308.121094 183.664062 308.121094 L 172.886719 308.121094 L 172.886719 263.042969 L 200.457031 263.042969 C 203.375 263.042969 206.164062 262.347656 208.632812 261.121094 Z M 101.125 232.722656 L 87.507812 158.855469 C 87.226562 156.792969 87.144531 154.703125 87.265625 152.644531 C 87.652344 146.167969 92.09375 143.023438 95.75 141.535156 C 98.277344 140.496094 101.054688 140.003906 103.789062 140.003906 C 107.460938 140.003906 111.046875 140.898438 113.820312 142.601562 C 113.804688 142.996094 113.789062 143.390625 113.789062 143.785156 C 113.789062 144.027344 113.808594 144.269531 113.84375 144.511719 L 123.6875 210.503906 L 123.921875 213.425781 C 123.921875 227.128906 135.070312 238.28125 148.78125 238.28125 L 199.148438 238.28125 C 199.46875 238.28125 199.78125 238.300781 200.085938 238.328125 C 200.207031 238.339844 200.324219 238.363281 200.445312 238.378906 C 200.628906 238.40625 200.8125 238.429688 200.992188 238.464844 C 201.148438 238.496094 201.296875 238.539062 201.453125 238.574219 C 201.585938 238.609375 201.726562 238.644531 201.859375 238.683594 C 202.039062 238.738281 202.214844 238.800781 202.390625 238.863281 C 202.488281 238.902344 202.585938 238.933594 202.6875 238.972656 C 202.890625 239.054688 203.085938 239.144531 203.28125 239.242188 C 203.339844 239.269531 203.402344 239.300781 203.460938 239.328125 C 203.6875 239.445312 203.90625 239.570312 204.125 239.707031 C 204.140625 239.71875 204.164062 239.730469 204.179688 239.738281 C 206.59375 241.273438 208.273438 243.878906 208.542969 246.914062 C 207.976562 250.480469 204.5 253.226562 200.457031 253.226562 L 124.414062 253.226562 C 112.742188 253.226562 102.75 244.507812 101.125 232.722656 Z M 282.398438 327.683594 L 267.304688 327.683594 L 267.304688 324.554688 C 267.304688 312.816406 258.050781 303.207031 246.460938 302.625 L 246.460938 220.09375 C 246.460938 206.625 235.507812 195.492188 222.042969 195.273438 L 219.476562 195.234375 C 219.4375 192.925781 218.964844 190.625 218.042969 188.464844 C 217.34375 186.828125 216.40625 185.320312 215.28125 183.980469 C 215.273438 183.964844 215.265625 183.957031 215.257812 183.945312 C 215.113281 183.773438 214.964844 183.605469 214.816406 183.441406 C 214.726562 183.339844 214.632812 183.238281 214.539062 183.140625 C 214.453125 183.050781 214.371094 182.964844 214.285156 182.878906 C 214.125 182.710938 213.960938 182.550781 213.789062 182.390625 C 213.757812 182.359375 213.726562 182.332031 213.695312 182.300781 C 212.570312 181.253906 211.3125 180.355469 209.941406 179.628906 C 209.9375 179.621094 209.929688 179.621094 209.921875 179.613281 C 209.679688 179.488281 209.433594 179.367188 209.1875 179.246094 C 209.144531 179.230469 209.101562 179.207031 209.0625 179.183594 C 208.851562 179.089844 208.632812 178.996094 208.421875 178.90625 C 208.34375 178.875 208.265625 178.839844 208.1875 178.808594 C 207.902344 178.691406 207.613281 178.585938 207.320312 178.484375 L 176.738281 167.941406 L 164.765625 146.84375 L 164.765625 141.292969 C 164.765625 127.929688 153.890625 117.058594 140.523438 117.058594 C 129.710938 117.058594 120.382812 123.511719 116.179688 132.769531 C 108.984375 129.488281 99.90625 129.234375 92.039062 132.449219 C 83.308594 136.011719 78 143.160156 77.472656 152.058594 C 77.3125 154.753906 77.414062 157.492188 77.820312 160.414062 L 91.4375 234.28125 C 93.6875 250.675781 107.863281 263.042969 124.414062 263.042969 L 137.464844 263.042969 L 137.464844 308.121094 L 126.6875 308.121094 C 123.980469 308.121094 121.78125 310.316406 121.78125 313.023438 L 121.78125 327.683594 L 99.664062 327.683594 C 96.953125 327.683594 94.757812 329.882812 94.757812 332.59375 C 94.757812 335.304688 96.953125 337.5 99.664062 337.5 L 282.398438 337.5 C 285.109375 337.5 287.308594 335.304688 287.308594 332.59375 C 287.308594 329.882812 285.109375 327.683594 282.398438 327.683594"/></g><path fill="#43726E" d="M 233.515625 185.445312 C 234.445312 186.257812 235.59375 186.65625 236.742188 186.65625 C 238.109375 186.65625 239.46875 186.089844 240.4375 184.976562 L 254.78125 168.554688 C 255.953125 167.214844 256.308594 165.34375 255.707031 163.667969 C 255.109375 161.996094 253.648438 160.777344 251.894531 160.484375 L 249.292969 160.050781 L 256.089844 152.34375 C 257.882812 150.308594 257.6875 147.207031 255.652344 145.417969 C 253.617188 143.617188 250.519531 143.820312 248.726562 145.847656 L 236.082031 160.191406 C 234.90625 161.527344 234.539062 163.402344 235.140625 165.082031 C 235.734375 166.761719 237.199219 167.988281 238.957031 168.28125 L 241.609375 168.722656 L 233.046875 178.519531 C 231.265625 180.558594 231.476562 183.660156 233.515625 185.445312"/><g clip-path="url(#c)"><path fill="#43726E" d="M 292.65625 189.902344 L 273.53125 190.121094 C 271.75 190.140625 270.117188 191.128906 269.273438 192.699219 C 268.421875 194.265625 268.496094 196.171875 269.457031 197.675781 L 270.90625 199.933594 L 257.898438 200.148438 C 255.1875 200.191406 253.023438 202.425781 253.070312 205.136719 C 253.113281 207.816406 255.304688 209.960938 257.976562 209.960938 C 258 209.960938 258.03125 209.960938 258.054688 209.960938 L 279.859375 209.609375 C 281.632812 209.578125 283.257812 208.589844 284.101562 207.023438 C 284.941406 205.457031 284.871094 203.554688 283.910156 202.058594 L 282.488281 199.832031 L 292.769531 199.714844 C 295.480469 199.683594 297.652344 197.460938 297.617188 194.75 C 297.585938 192.039062 295.296875 189.792969 292.65625 189.902344"/></g></svg>